<svg xmlns="http://www.w3.org/2000/svg" viewBox="0 0 320 320">
  <path d="M275.92,313.88H44.08v-.77A35.7,35.7,0,0,0,8.41,277.47H7.65V42.53h.76A35.7,35.7,0,0,0,44.08,6.89V6.12H275.92v.77a35.7,35.7,0,0,0,35.67,35.64h.76V277.47h-.76a35.7,35.7,0,0,0-35.67,35.64ZM45.61,312.35H274.39A37.23,37.23,0,0,1,310.82,276V44.05a37.23,37.23,0,0,1-36.43-36.4H45.61A37.23,37.23,0,0,1,9.18,44.05V276A37.23,37.23,0,0,1,45.61,312.35Zm244.07-9.11H30.32v-.46A11.7,11.7,0,0,0,18.63,291.1h-.46V28.9h.46A11.7,11.7,0,0,0,30.32,17.22v-.46H289.68v.46A11.7,11.7,0,0,0,301.37,28.9h.46V291.1h-.46a11.7,11.7,0,0,0-11.69,11.68Zm-258.45-.92H288.77a12.62,12.62,0,0,1,12.14-12.13V29.81a12.62,12.62,0,0,1-12.14-12.13H31.23A12.63,12.63,0,0,1,19.09,29.81V290.19A12.63,12.63,0,0,1,31.23,302.32Zm-14.48,6.11c-4.62,0-8.38,5.18-8.38,11.57,0-6.39-3.75-11.57-8.37-11.57,4.62,0,8.37-5.2,8.37-11.59,0,6.39,3.76,11.59,8.38,11.59m9.67,3.48c-2.25,0-4.08,2.53-4.08,5.63,0-3.1-1.82-5.63-4.07-5.63,2.25,0,4.07-2.52,4.07-5.63,0,3.11,1.83,5.63,4.08,5.63M21.35,300c-1.8,0-3.26,2-3.26,4.5,0-2.49-1.45-4.5-3.25-4.5,1.8,0,3.25-2,3.25-4.5,0,2.48,1.46,4.5,3.26,4.5m281.9,8.44c4.62,0,8.38-5.2,8.38-11.59,0,6.39,3.75,11.59,8.37,11.59-4.62,0-8.37,5.18-8.37,11.57,0-6.39-3.76-11.57-8.38-11.57m-9.67,3.48c2.25,0,4.08-2.52,4.08-5.63,0,3.11,1.82,5.63,4.07,5.63-2.25,0-4.07,2.53-4.07,5.63,0-3.1-1.83-5.63-4.08-5.63M298.66,300c1.79,0,3.25-2,3.25-4.5,0,2.48,1.45,4.5,3.25,4.5-1.8,0-3.25,2-3.25,4.5,0-2.49-1.46-4.5-3.25-4.5M16.75,11.57c-4.62,0-8.38,5.2-8.38,11.59,0-6.39-3.75-11.59-8.37-11.59C4.62,11.57,8.37,6.39,8.37,0c0,6.39,3.76,11.57,8.38,11.57m9.67-3.48c-2.25,0-4.08,2.52-4.08,5.63,0-3.11-1.82-5.63-4.07-5.63,2.25,0,4.07-2.53,4.07-5.63,0,3.1,1.83,5.63,4.08,5.63M21.35,20c-1.8,0-3.26,2-3.26,4.5,0-2.48-1.45-4.5-3.25-4.5,1.8,0,3.25-2,3.25-4.5,0,2.49,1.46,4.5,3.26,4.5m281.9-8.44c4.62,0,8.38-5.18,8.38-11.57,0,6.39,3.75,11.57,8.37,11.57-4.62,0-8.37,5.2-8.37,11.59,0-6.39-3.76-11.59-8.38-11.59m-9.67-3.48c2.25,0,4.08-2.53,4.08-5.63,0,3.1,1.82,5.63,4.07,5.63-2.25,0-4.07,2.52-4.07,5.63,0-3.11-1.83-5.63-4.08-5.63M298.66,20c1.79,0,3.25-2,3.25-4.5,0,2.49,1.45,4.5,3.25,4.5-1.8,0-3.25,2-3.25,4.5,0-2.48-1.46-4.5-3.25-4.5" style="fill: #c7af8a;opacity: 0.6000000000000001"/>
</svg>