<svg xmlns="http://www.w3.org/2000/svg" xmlns:xlink="http://www.w3.org/1999/xlink" viewBox="0 0 111.18 112.87">
  <defs>
    <linearGradient id="a" data-name="New Gradient Swatch 1" x1="55.59" y1="107.6" x2="55.59" y2="10.29" gradientUnits="userSpaceOnUse">
      <stop offset="0" stop-color="#a79174"/>
      <stop offset="0.45" stop-color="#c9a96e"/>
      <stop offset="0.47" stop-color="#977c52"/>
      <stop offset="0.6" stop-color="#fffbf5"/>
      <stop offset="1" stop-color="#e1cdaf"/>
    </linearGradient>
  </defs>
  <path d="M83.88,39.9l20.54-11.75.08.14L83.82,40.34C83.84,40.19,83.87,40,83.88,39.9ZM68.2,64.41V36.52a4.72,4.72,0,0,0-4.72-4.72H35.87a1.9,1.9,0,0,1,.21.19,4.56,4.56,0,0,1,.81,1.08H63.48a3.45,3.45,0,0,1,3.44,3.45V63.18Zm30.08-23.6L82.77,46.37l-.07.37L98.34,41ZM51,29.3l-3.2-17.65-.16,0,3,17.62Zm25,9-5.78-1v28a7.29,7.29,0,0,1,2.76,1.29l4.61-26A2,2,0,0,0,75.93,38.33ZM90.36,27.15,81.8,34.26a1.8,1.8,0,0,0,.19.2l8.48-7.19ZM63.56,11.68l-.16,0L60.2,29.3h.35ZM76.32,32,91.93,13.25l-.13-.1L75.91,31.93ZM55.67,0h-.16l-.12,29.3h.4ZM70.48,31,78.39,17.1,78.25,17,70.14,30.91ZM75,3.43l-.15-.05L65.19,29.5l.38.09Zm26.08,52.92-20-.1-.07.37,20.1-.11ZM64.54,82.91V73a7.29,7.29,0,0,1-.7-2.69l-4.91-5.07c-5,4.08-7.82,9.92-10,19.66H62.55A2,2,0,0,0,64.54,82.91Zm33.8-11-18.86-7-.07.37,18.87,6.76ZM77.61,34.77l-8.24-1.46a6.54,6.54,0,0,1,.56,1.43l7.45,1.32a3.31,3.31,0,0,1,2.67,3.82L74.83,69.35A4.91,4.91,0,0,1,75,71l.72.71,5.6-31.61A4.61,4.61,0,0,0,77.61,34.77ZM81.76,52l29.42-5.31,0-.16L81.84,51.6Zm-61-24.75,6,5.06-.56-.78-5.3-4.4ZM62.55,35.6H49c1.85,8.47,4.24,14,8.12,18A6.45,6.45,0,0,1,61,55.33a4.54,4.54,0,0,1,1.22,2.18c.74.43,1.5.84,2.32,1.24V37.58A2,2,0,0,0,62.55,35.6ZM34.13,84.9H47.7c-2.83-12.9-6.85-19-15.56-23.14V82.91A2,2,0,0,0,34.13,84.9Zm8.32-35A5.73,5.73,0,0,1,41.3,47L41,46.73l-2-2-5.26-5.44-.51-.52a4.06,4.06,0,0,1-1.12-.31V58.74A23.54,23.54,0,0,0,42.45,49.92Zm3.25-7.28h.09a70.51,70.51,0,0,0,1.91-7H38.43ZM80.18,61l31,5.33,0-.16L80.25,60.57ZM61.58,91.19l1.82,10,.16,0-1.71-10Zm-14,10,.16,0,1.82-10h-.27Zm7.89,11.68h.16l.09-21.68h-.34ZM19.25,99.61l.13.11L28.2,89.28,28,89.1Zm13.54-3.85.14.08,2.72-4.65H35.4Zm3.42,13.68.15,0,6.75-18.3h-.34Zm32-33.23a4.75,4.75,0,0,1-1.28-.53V84a3.44,3.44,0,0,1-3.44,3.44H33.2A3.44,3.44,0,0,1,29.76,84V36.52c0-.09,0-.16,0-.24A6.17,6.17,0,0,1,29,34.39a4.63,4.63,0,0,0-.53,2.13V84A4.73,4.73,0,0,0,33.2,88.7H63.48A4.73,4.73,0,0,0,68.2,84ZM45.92,29.3,36.36,3.38l-.15.05,9.3,25.87ZM67.6,89.92l7.22,19.57.15,0L67.88,89.72A2.83,2.83,0,0,1,67.6,89.92Zm11-20,25.83,14.77.08-.14L78.67,69.52ZM25.93,45.8v-.32l-13-4.67-.06.15Zm0-6.69-19.17-11-.08.14L25.93,39.51Zm0,42.36v-.3l-5.22,4.42.11.13ZM40.1,29.3,32.93,17l-.14.08,7,12.2Zm-6.94.14L19.38,13.15l-.13.1L32.84,29.58ZM25.93,51,0,46.55l0,.16,25.93,4.68Zm0,22.35L6.68,84.58l.08.14,19.17-11Zm0-16.77v-.32l-15.8.08v.16Zm0,10.8v-.32L12.84,71.91l.06.15Zm0-5.92L0,66.15l0,.16,25.9-4.46Zm68.7,29.37-1.38,0a2.1,2.1,0,0,1-1.44-.59l-.19-.18a1.66,1.66,0,0,0-.4-1.64,2.72,2.72,0,0,0-2-.67l-4.47-4.32a3.06,3.06,0,0,0-.83-3.17,5.49,5.49,0,0,0-4-1.5l-7.24-7A2.82,2.82,0,0,0,72,68.66a5,5,0,0,0-3.88-1.34L63.69,63,60.06,59.5a2.39,2.39,0,0,0-.57-2.67,4.19,4.19,0,0,0-3.35-1.13L48,47.82a2,2,0,0,0-.46-2.15,3.4,3.4,0,0,0-2.7-.9l-8.62-8.35h0l-1-1a2,2,0,0,0-.66-2A3.82,3.82,0,0,0,32,32.36l-9.9-9.49a.43.43,0,0,0-.6,0h0a.43.43,0,0,0,0,.6L31,33.37a3.8,3.8,0,0,0,1.12,2.54,2,2,0,0,0,2,.66l1.16,1.2h0l5.27,5.44h0l2,2,.9.93a3.36,3.36,0,0,0,.91,2.7,1.92,1.92,0,0,0,2.15.46l6,6.21,1.85,1.92a4.26,4.26,0,0,0,1.14,3.36,2.41,2.41,0,0,0,2.66.57L66,69.47a5,5,0,0,0,1.35,3.88,2.81,2.81,0,0,0,3.08.69l6.24,6.45h0l.77.79a5.44,5.44,0,0,0,1.5,4,3.08,3.08,0,0,0,3.16.84l4.33,4.46a2.72,2.72,0,0,0,.67,2,1.66,1.66,0,0,0,1.63.39l.18.19a2.13,2.13,0,0,1,.6,1.44l0,1.38a.59.59,0,0,0,.17.42.6.6,0,0,0,.84,0L95,91.86A.6.6,0,0,0,95,91,.64.64,0,0,0,94.63,90.84Z" style="fill: url(#a)"/>
</svg>
